<svg width="99" height="14" viewBox="0 0 99 14" fill="none" xmlns="http://www.w3.org/2000/svg">
<path d="M8.81081 0.823017C8.81081 0.691016 8.85581 0.589016 8.94581 0.517016C9.04181 0.439016 9.18581 0.400016 9.37781 0.400016H12.2398C12.4318 0.400016 12.5728 0.436017 12.6628 0.508017C12.7588 0.580017 12.8068 0.682017 12.8068 0.814016C12.8068 0.916017 12.7768 1.00002 12.7168 1.06602C12.6568 1.12602 12.5548 1.18602 12.4108 1.24602L12.0778 1.37202C11.8918 1.45002 11.7358 1.57002 11.6098 1.73202C11.4898 1.89402 11.3698 2.15502 11.2498 2.51502L8.27981 11.218C8.21381 11.428 8.16281 11.599 8.12681 11.731C8.09681 11.863 8.08181 11.998 8.08181 12.136V12.55C8.08181 12.694 8.03981 12.805 7.95581 12.883C7.87181 12.961 7.76081 13 7.62281 13H5.40881C5.27081 13 5.15981 12.961 5.07581 12.883C4.99781 12.805 4.95881 12.688 4.95881 12.532V12.127C4.95881 12.025 4.94081 11.917 4.90481 11.803C4.87481 11.689 4.83581 11.557 4.78781 11.407L1.50281 2.00202C1.43681 1.81002 1.36481 1.67502 1.28681 1.59702C1.21481 1.51302 1.11281 1.44102 0.980809 1.38102L0.629809 1.26402C0.395809 1.17402 0.278809 1.02702 0.278809 0.823017C0.278809 0.691016 0.326809 0.589016 0.422809 0.517016C0.518809 0.439016 0.662809 0.400016 0.854809 0.400016H5.14781C5.34581 0.400016 5.48981 0.439016 5.57981 0.517016C5.66981 0.589016 5.71481 0.691016 5.71481 0.823017C5.71481 0.931017 5.68181 1.01802 5.61581 1.08402C5.54981 1.15002 5.45081 1.20702 5.31881 1.25502L4.73381 1.37202C4.58381 1.42602 4.49081 1.51002 4.45481 1.62402C4.41881 1.73802 4.44281 1.92102 4.52681 2.17302L7.73081 11.452L6.87581 12.109L10.1788 2.43402C10.2748 2.14602 10.2928 1.92102 10.2328 1.75902C10.1728 1.59702 10.0048 1.46502 9.72881 1.36302L9.20681 1.24602C9.08081 1.19802 8.98181 1.14402 8.90981 1.08402C8.84381 1.02402 8.81081 0.937016 8.81081 0.823017Z" fill="#39312D"/>
<path d="M15.3756 7.87002H20.7126L20.7486 8.83302H15.3036L15.3756 7.87002ZM16.4376 12.577C16.4376 12.703 16.3926 12.805 16.3026 12.883C16.2126 12.961 16.0716 13 15.8796 13H13.0536C12.8616 13 12.7176 12.964 12.6216 12.892C12.5316 12.814 12.4866 12.709 12.4866 12.577C12.4866 12.487 12.5136 12.409 12.5676 12.343C12.6216 12.277 12.7146 12.211 12.8466 12.145L13.1436 12.028C13.3236 11.938 13.4586 11.821 13.5486 11.677C13.6446 11.533 13.7526 11.278 13.8726 10.912L16.7436 2.14602C16.8276 1.88202 16.8516 1.69302 16.8156 1.57902C16.7796 1.45902 16.6566 1.36302 16.4466 1.29102C16.2786 1.23702 16.1586 1.17402 16.0866 1.10202C16.0206 1.02402 15.9876 0.928017 15.9876 0.814016C15.9876 0.682017 16.0326 0.580017 16.1226 0.508017C16.2186 0.436017 16.3626 0.400016 16.5546 0.400016H20.9826C21.1746 0.400016 21.3156 0.436017 21.4056 0.508017C21.4956 0.580017 21.5406 0.682017 21.5406 0.814016C21.5406 0.928017 21.5076 1.02402 21.4416 1.10202C21.3756 1.17402 21.2646 1.23402 21.1086 1.28202C20.9466 1.33602 20.8506 1.40802 20.8206 1.49802C20.7906 1.58802 20.8086 1.73202 20.8746 1.93002L23.9166 11.101C24.0126 11.407 24.1146 11.632 24.2226 11.776C24.3306 11.914 24.4866 12.016 24.6906 12.082C24.8706 12.148 24.9906 12.217 25.0506 12.289C25.1106 12.361 25.1406 12.457 25.1406 12.577C25.1406 12.703 25.0926 12.805 24.9966 12.883C24.9066 12.961 24.7656 13 24.5736 13H20.6046C20.4126 13 20.2686 12.961 20.1726 12.883C20.0826 12.805 20.0376 12.703 20.0376 12.577C20.0376 12.469 20.0676 12.382 20.1276 12.316C20.1936 12.244 20.2956 12.187 20.4336 12.145L20.9466 12.037C21.1026 11.989 21.1776 11.911 21.1716 11.803C21.1656 11.695 21.1236 11.521 21.0456 11.281L17.8776 1.48002L18.1746 1.31802L15.0876 10.768C15.0096 11.02 14.9676 11.224 14.9616 11.38C14.9616 11.53 15.0096 11.656 15.1056 11.758C15.2016 11.86 15.3546 11.953 15.5646 12.037L16.0506 12.154C16.1766 12.202 16.2726 12.259 16.3386 12.325C16.4046 12.385 16.4376 12.469 16.4376 12.577Z" fill="#39312D"/>
<path d="M37.5138 9.68802C37.5138 10.108 37.3968 10.534 37.1628 10.966C36.9348 11.392 36.6018 11.785 36.1638 12.145C35.7318 12.505 35.2038 12.793 34.5798 13.009C33.9558 13.231 33.2508 13.342 32.4648 13.342C31.1628 13.342 30.0378 13.063 29.0898 12.505C28.1478 11.941 27.4188 11.167 26.9028 10.183C26.3928 9.19302 26.1378 8.05602 26.1378 6.77202C26.1378 5.80602 26.2878 4.91802 26.5878 4.10802C26.8938 3.29202 27.3198 2.58402 27.8658 1.98402C28.4178 1.38402 29.0628 0.919016 29.8008 0.589016C30.5388 0.253016 31.3428 0.0850167 32.2128 0.0850167C32.8128 0.0850167 33.2988 0.145017 33.6708 0.265017C34.0488 0.379017 34.3458 0.496017 34.5618 0.616017C34.7838 0.736017 34.9578 0.796017 35.0838 0.796017C35.2398 0.796017 35.3538 0.745017 35.4258 0.643017C35.5038 0.535017 35.5818 0.430017 35.6598 0.328016C35.7438 0.226017 35.8638 0.175016 36.0198 0.175016C36.1338 0.175016 36.2268 0.211016 36.2988 0.283016C36.3708 0.349016 36.4308 0.466017 36.4788 0.634017L37.4238 3.73002C37.4718 3.86802 37.4598 3.99402 37.3878 4.10802C37.3158 4.21602 37.2078 4.28502 37.0638 4.31502C36.9198 4.34502 36.7878 4.33302 36.6678 4.27902C36.5538 4.21902 36.4638 4.11402 36.3978 3.96402C36.0738 3.25002 35.7168 2.68302 35.3268 2.26302C34.9368 1.83702 34.5138 1.53402 34.0578 1.35402C33.6018 1.16802 33.1068 1.07502 32.5728 1.07502C32.0388 1.07502 31.5498 1.19802 31.1058 1.44402C30.6618 1.68402 30.2778 2.02902 29.9538 2.47902C29.6358 2.92902 29.3868 3.46902 29.2068 4.09902C29.0328 4.72302 28.9458 5.42502 28.9458 6.20502C28.9458 7.41102 29.1318 8.43102 29.5038 9.26502C29.8818 10.099 30.3948 10.732 31.0428 11.164C31.6908 11.59 32.4318 11.803 33.2658 11.803C34.0638 11.803 34.7568 11.617 35.3448 11.245C35.9328 10.867 36.3918 10.336 36.7218 9.65202C36.7998 9.50802 36.8808 9.41202 36.9648 9.36402C37.0488 9.31602 37.1418 9.30102 37.2438 9.31902C37.3398 9.33102 37.4088 9.37002 37.4508 9.43602C37.4928 9.49602 37.5138 9.58002 37.5138 9.68802Z" fill="#39312D"/>
<path d="M41.2682 7.87002H46.6052L46.6412 8.83302H41.1962L41.2682 7.87002ZM42.3302 12.577C42.3302 12.703 42.2852 12.805 42.1952 12.883C42.1052 12.961 41.9642 13 41.7722 13H38.9462C38.7542 13 38.6102 12.964 38.5142 12.892C38.4242 12.814 38.3792 12.709 38.3792 12.577C38.3792 12.487 38.4062 12.409 38.4602 12.343C38.5142 12.277 38.6072 12.211 38.7392 12.145L39.0362 12.028C39.2162 11.938 39.3512 11.821 39.4412 11.677C39.5372 11.533 39.6452 11.278 39.7652 10.912L42.6362 2.14602C42.7202 1.88202 42.7442 1.69302 42.7082 1.57902C42.6722 1.45902 42.5492 1.36302 42.3392 1.29102C42.1712 1.23702 42.0512 1.17402 41.9792 1.10202C41.9132 1.02402 41.8802 0.928017 41.8802 0.814016C41.8802 0.682017 41.9252 0.580017 42.0152 0.508017C42.1112 0.436017 42.2552 0.400016 42.4472 0.400016H46.8752C47.0672 0.400016 47.2082 0.436017 47.2982 0.508017C47.3882 0.580017 47.4332 0.682017 47.4332 0.814016C47.4332 0.928017 47.4002 1.02402 47.3342 1.10202C47.2682 1.17402 47.1572 1.23402 47.0012 1.28202C46.8392 1.33602 46.7432 1.40802 46.7132 1.49802C46.6832 1.58802 46.7012 1.73202 46.7672 1.93002L49.8092 11.101C49.9052 11.407 50.0072 11.632 50.1152 11.776C50.2232 11.914 50.3792 12.016 50.5832 12.082C50.7632 12.148 50.8832 12.217 50.9432 12.289C51.0032 12.361 51.0332 12.457 51.0332 12.577C51.0332 12.703 50.9852 12.805 50.8892 12.883C50.7992 12.961 50.6582 13 50.4662 13H46.4972C46.3052 13 46.1612 12.961 46.0652 12.883C45.9752 12.805 45.9302 12.703 45.9302 12.577C45.9302 12.469 45.9602 12.382 46.0202 12.316C46.0862 12.244 46.1882 12.187 46.3262 12.145L46.8392 12.037C46.9952 11.989 47.0702 11.911 47.0642 11.803C47.0582 11.695 47.0162 11.521 46.9382 11.281L43.7702 1.48002L44.0672 1.31802L40.9802 10.768C40.9022 11.02 40.8602 11.224 40.8542 11.38C40.8542 11.53 40.9022 11.656 40.9982 11.758C41.0942 11.86 41.2472 11.953 41.4572 12.037L41.9432 12.154C42.0692 12.202 42.1652 12.259 42.2312 12.325C42.2972 12.385 42.3302 12.469 42.3302 12.577Z" fill="#39312D"/>
<path d="M53.8014 0.400016H60.0834C60.3114 0.400016 60.4974 0.373017 60.6414 0.319017C60.7854 0.259017 60.9144 0.202017 61.0284 0.148016C61.1424 0.0940168 61.2654 0.0670166 61.3974 0.0670166C61.6014 0.0670166 61.7544 0.115017 61.8564 0.211016C61.9644 0.307016 62.0484 0.472016 62.1084 0.706017L62.7114 3.59502C62.7474 3.76902 62.7354 3.91302 62.6754 4.02702C62.6154 4.13502 62.5104 4.20102 62.3604 4.22502C62.2224 4.25502 62.0994 4.24602 61.9914 4.19802C61.8834 4.14402 61.7934 4.03902 61.7214 3.88302C61.4094 3.18702 61.1424 2.65902 60.9204 2.29902C60.6984 1.93902 60.4764 1.69302 60.2544 1.56102C60.0324 1.42902 59.7594 1.36302 59.4354 1.36302H58.3374V11.47C58.3374 11.608 58.3764 11.719 58.4544 11.803C58.5324 11.887 58.6434 11.95 58.7874 11.992L59.3004 12.109C59.5584 12.187 59.6874 12.343 59.6874 12.577C59.6874 12.859 59.5014 13 59.1294 13H54.7554C54.5634 13 54.4224 12.961 54.3324 12.883C54.2424 12.805 54.1974 12.703 54.1974 12.577C54.1974 12.343 54.3264 12.187 54.5844 12.109L55.0974 11.992C55.2414 11.95 55.3524 11.887 55.4304 11.803C55.5084 11.719 55.5474 11.608 55.5474 11.47V1.36302H54.4494C54.1314 1.36302 53.8584 1.42902 53.6304 1.56102C53.4084 1.69302 53.1864 1.93902 52.9644 2.29902C52.7424 2.65902 52.4754 3.18702 52.1634 3.88302C52.0914 4.03902 52.0014 4.14402 51.8934 4.19802C51.7854 4.24602 51.6624 4.25502 51.5244 4.22502C51.3804 4.20102 51.2754 4.13502 51.2094 4.02702C51.1494 3.91302 51.1374 3.76902 51.1734 3.59502L51.7764 0.706017C51.8364 0.472016 51.9174 0.307016 52.0194 0.211016C52.1274 0.115017 52.2834 0.0670166 52.4874 0.0670166C52.6194 0.0670166 52.7424 0.0940168 52.8564 0.148016C52.9704 0.202017 53.0994 0.259017 53.2434 0.319017C53.3874 0.373017 53.5734 0.400016 53.8014 0.400016Z" fill="#39312D"/>
<path d="M68.3219 11.47C68.3219 11.608 68.3609 11.719 68.4389 11.803C68.5169 11.887 68.6309 11.95 68.7809 11.992L69.2849 12.109C69.5429 12.187 69.6719 12.343 69.6719 12.577C69.6719 12.703 69.6269 12.805 69.5369 12.883C69.4469 12.961 69.3059 13 69.1139 13H64.7399C64.5539 13 64.4159 12.961 64.3259 12.883C64.2359 12.805 64.1909 12.703 64.1909 12.577C64.1909 12.343 64.3169 12.187 64.5689 12.109L65.0819 11.992C65.2319 11.95 65.3429 11.887 65.4149 11.803C65.4929 11.719 65.5319 11.608 65.5319 11.47V1.93002C65.5319 1.79202 65.4929 1.68102 65.4149 1.59702C65.3429 1.51302 65.2319 1.45002 65.0819 1.40802L64.5689 1.29102C64.3169 1.21302 64.1909 1.05702 64.1909 0.823017C64.1909 0.691016 64.2359 0.589016 64.3259 0.517016C64.4159 0.439016 64.5539 0.400016 64.7399 0.400016H69.1139C69.3059 0.400016 69.4469 0.439016 69.5369 0.517016C69.6269 0.589016 69.6719 0.691016 69.6719 0.823017C69.6719 1.05702 69.5429 1.21302 69.2849 1.29102L68.7809 1.40802C68.6309 1.45002 68.5169 1.51302 68.4389 1.59702C68.3609 1.68102 68.3219 1.79202 68.3219 1.93002V11.47Z" fill="#39312D"/>
<path d="M77.7571 0.0760164C78.7471 0.0760164 79.6411 0.241016 80.4391 0.571017C81.2371 0.895017 81.9181 1.35702 82.4821 1.95702C83.0521 2.55102 83.4901 3.25602 83.7961 4.07202C84.1021 4.88802 84.2551 5.79102 84.2551 6.78102C84.2551 7.72302 84.1021 8.59302 83.7961 9.39102C83.4961 10.189 83.0611 10.885 82.4911 11.479C81.9271 12.067 81.2491 12.526 80.4571 12.856C79.6651 13.18 78.7831 13.342 77.8111 13.342C76.8331 13.342 75.9451 13.18 75.1471 12.856C74.3551 12.526 73.6741 12.064 73.1041 11.47C72.5341 10.87 72.0961 10.162 71.7901 9.34602C71.4901 8.52402 71.3401 7.61802 71.3401 6.62802C71.3401 5.69202 71.4901 4.82502 71.7901 4.02702C72.0901 3.22902 72.5221 2.53602 73.0861 1.94802C73.6501 1.35402 74.3251 0.895017 75.1111 0.571017C75.9031 0.241016 76.7851 0.0760164 77.7571 0.0760164ZM81.3841 8.38302C81.3841 7.58502 81.3091 6.82302 81.1591 6.09702C81.0151 5.36502 80.8111 4.69302 80.5471 4.08102C80.2831 3.46902 79.9741 2.93502 79.6201 2.47902C79.2661 2.02302 78.8791 1.66902 78.4591 1.41702C78.0451 1.16502 77.6131 1.03902 77.1631 1.03902C76.5691 1.03902 76.0531 1.19802 75.6151 1.51602C75.1771 1.83402 74.8381 2.29002 74.5981 2.88402C74.3581 3.47802 74.2381 4.19502 74.2381 5.03502C74.2381 5.83302 74.3101 6.59802 74.4541 7.33002C74.6041 8.06202 74.8081 8.73402 75.0661 9.34602C75.3301 9.95802 75.6391 10.492 75.9931 10.948C76.3471 11.404 76.7311 11.761 77.1451 12.019C77.5591 12.271 77.9911 12.397 78.4411 12.397C79.0411 12.397 79.5601 12.238 79.9981 11.92C80.4361 11.602 80.7751 11.143 81.0151 10.543C81.2611 9.94302 81.3841 9.22302 81.3841 8.38302Z" fill="#39312D"/>
<path d="M89.886 12.577C89.886 12.703 89.841 12.805 89.751 12.883C89.661 12.955 89.52 12.994 89.328 13H86.349C86.157 12.994 86.013 12.955 85.917 12.883C85.827 12.805 85.782 12.703 85.782 12.577C85.782 12.361 85.917 12.202 86.187 12.1L86.601 11.974C86.877 11.872 87.063 11.758 87.159 11.632C87.261 11.506 87.312 11.302 87.312 11.02V3.23502C87.312 3.03702 87.288 2.87802 87.24 2.75802C87.192 2.63202 87.081 2.46102 86.907 2.24502L86.151 1.30902C86.049 1.17702 85.98 1.07502 85.944 1.00302C85.908 0.925016 85.89 0.850017 85.89 0.778017C85.89 0.658017 85.932 0.565017 86.016 0.499017C86.1 0.433017 86.214 0.400016 86.358 0.400016H88.401C88.581 0.400016 88.731 0.433017 88.851 0.499017C88.971 0.559017 89.094 0.676017 89.22 0.850017L96.231 10.084L95.799 11.146V2.38002C95.799 2.10402 95.754 1.90302 95.664 1.77702C95.574 1.65102 95.382 1.53402 95.088 1.42602L94.674 1.30002C94.404 1.18602 94.269 1.02702 94.269 0.823017C94.269 0.691016 94.314 0.589016 94.404 0.517016C94.5 0.439016 94.641 0.400016 94.827 0.400016H97.806C97.998 0.400016 98.142 0.439016 98.238 0.517016C98.334 0.589016 98.382 0.691016 98.382 0.823017C98.382 1.03302 98.244 1.19202 97.968 1.30002L97.554 1.42602C97.278 1.52202 97.089 1.63302 96.987 1.75902C96.891 1.88502 96.843 2.09202 96.843 2.38002V10.408C96.843 10.6 96.861 10.768 96.897 10.912C96.933 11.05 96.996 11.179 97.086 11.299L97.635 12.028C97.749 12.172 97.818 12.283 97.842 12.361C97.872 12.439 97.887 12.517 97.887 12.595C97.887 12.715 97.845 12.814 97.761 12.892C97.677 12.964 97.554 13 97.392 13H95.007C94.719 13 94.575 12.883 94.575 12.649C94.575 12.553 94.554 12.463 94.512 12.379C94.476 12.289 94.371 12.124 94.197 11.884L87.492 3.01902L88.365 2.41602V11.029C88.365 11.293 88.41 11.488 88.5 11.614C88.59 11.74 88.779 11.86 89.067 11.974L89.481 12.1C89.751 12.208 89.886 12.367 89.886 12.577Z" fill="#39312D"/>
</svg>
